<svg xmlns="http://www.w3.org/2000/svg" aria-hidden="true" style="position:absolute;width:0;height:0;overflow:hidden">
    <defs>
        <!-- ICONS-COLOR -->

        <!-- Icon-moile-menu-modal-window -->
        <symbol id="icon-menu-cl" viewBox="0 0 32 32">
            <path fill="#fff" d="M0 8.889V5.333h32v3.556H0zm0 8.889h32v-3.556H0v3.556zm0 8.889h32v-3.556H0v3.556z"
                style="fill:var(--color4, #fff)" />
        </symbol>
        <symbol id="icon-close-cl" viewBox="0 0 32 32">
            <path
                d="M32 3.223 28.777 0 16 12.777 3.223 0 0 3.223 12.777 16 0 28.777 3.223 32 16 19.223 28.777 32 32 28.777 19.223 16 32 3.223z" />
        </symbol>

        <!-- Icon-video-play -->
        <symbol id="icon-Group" viewBox="0 0 32 32">
            <path fill="#18a0fb" d="M32 16c0 8.837-7.163 16-16 16S0 24.837 0 16 7.163 0 16 0s16 7.163 16 16z"
                style="fill:var(--color1, #18a0fb)" />
            <path fill="#fff"
                d="M21.939 15.249c.485.28.485.98 0 1.26l-8.545 4.934c-.485.28-1.091-.07-1.091-.63v-9.867c0-.56.606-.91 1.091-.63l8.545 4.934z"
                style="fill:var(--color2, #fff)" />
        </symbol>

        <!-- ICONS-NO-COLOR -->

        <!-- Icon-moile-menu-modal-window -->
        <symbol id="icon-menu" viewBox="0 0 32 32">
            <path d="M0 8.889V5.333h32v3.556H0zm0 8.889h32v-3.556H0v3.556zm0 8.889h32v-3.556H0v3.556z" />
        </symbol>
        <symbol id="icon-close" viewBox="0 0 32 32">
            <path
                d="M32 3.223 28.777 0 16 12.777 3.223 0 0 3.223 12.777 16 0 28.777 3.223 32 16 19.223 28.777 32 32 28.777 19.223 16 32 3.223z" />
        </symbol>

        <!-- icon form -->

        <symbol id="icon-mail" viewBox="0 0 32 32">
            <path
                d="M29 4H3C1.35 4 0 5.35 0 7v20c0 1.65 1.35 3 3 3h26c1.65 0 3-1.35 3-3V7c0-1.65-1.35-3-3-3zM12.461 17.199 4 23.789V8.113l8.461 9.086zM5.512 8h20.976L16 15.875 5.512 8zm7.278 9.553L16 21l3.21-3.447L25.79 26H6.211l6.58-8.447zm6.749-.354L28 8.113v15.676l-8.461-6.59z" />
        </symbol>
        <symbol id="icon-user" viewBox="0 0 32 32">
            <path
                d="M18 22.082v-1.649c2.203-1.241 4-4.337 4-7.432 0-4.971 0-9-6-9s-6 4.029-6 9c0 3.096 1.797 6.191 4 7.432v1.649C7.216 22.637 2 25.97 2 30h28c0-4.03-5.216-7.364-12-7.918z" />
        </symbol>
    </defs>
</svg>